<svg xmlns="http://www.w3.org/2000/svg" width="369.996" height="153" viewBox="0 0 369.996 153">
  <g id="logotype-desktop.svg" transform="translate(-0.004)">
    <g id="Group_19" data-name="Group 19">
      <path id="Path_39" data-name="Path 39" d="M120.034,11.423C127.231,9,127.778,0,120.686,0c-1.951,0-4.282,1.369-5.893,4.173L105.2,20.727a13.845,13.845,0,0,1-1.371,2.018c-2.468-3.386-1.746-8.448,1.714-10.671l-1.44-1.812c-7.469,4.754-5.276,18.469,7.2,18.469C121.954,28.73,126.887,15.972,120.034,11.423Zm-8.8,14.57a10.257,10.257,0,0,1-5.138-1.232,18.451,18.451,0,0,0,1.78-2.531l5.995-10.364.959.1C123.187,13.716,119.865,25.994,111.229,25.994Zm3.839-16.212,2.876-4.925c2.6-4.481,5.928-1.846,4.146,1.5C120.72,8.927,118.7,9.713,115.068,9.782Z" fill="#fff"/>
      <path id="Path_40" data-name="Path 40" d="M259.59,18.948l-.237.274a16.768,16.768,0,0,1-6.512,4.993c.582-.924,1.028-1.915,1.473-2.668l3.941-6.737c3.324-5.643-2.056-7.525-5.688-4.275l.72-1.233h-3.564l-5.571,9.652-.012-.006-.24.274a7.682,7.682,0,0,1-5.379,2.633l3.358-5.779c2.159-3.728.172-7.251-3.187-7.251-2.741,0-4.864,1.095-6.92,4.653l-1.748,3.043-1.455,2.485-.19.217c-2.569,2.976-5.07,5.335-6.648,5.335-.788,0-1.232-.547-.412-1.949l5.141-9c1.541-2.7.069-4.652-1.919-4.652-1.541,0-3.188.855-4.968,2.7l5.688-9.885H221.7l-9.939,17.21-.2.233a22.17,22.17,0,0,1-4.283,3.865c1.134-3.386.893-8.584,3.085-13.133l-2.673-1.438c-1.473,2.019-4.693,6.67-7.914,10.432h0l-.24.274c-2.569,2.976-5.071,5.335-6.646,5.335-.789,0-1.235-.547-.413-1.949l3.564-6.225c1.233-2.154.65-3.42-.515-4.822l-1.987-2.393a1.385,1.385,0,0,1,.2-2.052L191.888,5.1c-2.022,1.812-2.192,3.831-.924,5.472l.307.411c-1.575,2.222-3.7,5.232-6.029,7.969l-.239.274c-2.57,2.976-5.86,5.335-8.36,5.335-2.193,0-3.494-1.368-1.851-4.241l.342-.616c2.3.958,6.614.512,9.286-4.1l.514-.89c1.919-3.283.068-5.746-2.845-5.746a7.538,7.538,0,0,0-6.681,4.1l-3.452,5.913-.214.244a7.607,7.607,0,0,1-5.379,2.633l3.36-5.779a8.652,8.652,0,0,0,1.335-4.07,3.046,3.046,0,0,0-3.222-3.181,4.145,4.145,0,0,0-2.329.787l4.524-7.833H166.4l-9.989,17.229-.188.214c-2.57,2.976-5.069,5.335-6.647,5.335-.788,0-1.234-.547-.412-1.949l3.563-6.225c1.233-2.154.65-3.42-.514-4.822L150.224,9.17a1.385,1.385,0,0,1,.205-2.052L148.58,5.1c-2.023,1.812-2.193,3.831-.925,5.472l.308.411c-1.576,2.222-3.7,5.232-6.029,7.969l-.24.274c-2.57,2.976-5.07,5.335-6.646,5.335-.79,0-1.236-.547-.413-1.949l5.756-10.055h-2.023a3.7,3.7,0,0,0-3.733-3.592c-1.92,0-4.59,1.5-6.1,4.1l-5,8.618c-1.509,2.634-.446,5.062,2.432,5.062,1.439,0,3.221-.924,4.934-2.326.171,1.369,1.269,2.326,3.085,2.326,2.945,0,6.337-3.146,9.286-6.567h0c1.713-1.983,3.048-3.762,5.893-7.627l.48.582a1.747,1.747,0,0,1,.205,2.017l-3.77,6.533c-1.506,2.634-.444,5.062,2.433,5.062,2.066,0,4.351-1.549,6.547-3.651v.025c0,2.428,1.818,3.8,4.112,3.8a7.886,7.886,0,0,0,6.065-3.317,6.084,6.084,0,0,0,.787.034,10.473,10.473,0,0,0,4.732-1.4c-.187,2.567,1.679,4.517,4.828,4.517,4.043,0,8.051-3.146,11-6.567,1.715-1.983,3.049-3.762,5.893-7.627l.48.582a1.747,1.747,0,0,1,.205,2.017l-3.77,6.533c-1.508,2.634-.445,5.062,2.433,5.062,2.947,0,6.339-3.146,9.286-6.567h0c2.021-2.325,3.8-4.822,5.07-6.5-1.4,3.695-.65,10.33-4.042,10.33a1.993,1.993,0,0,1-1.68-1.3l-2.227,1.164a3.884,3.884,0,0,0,3.907,2.873,9.714,9.714,0,0,0,.991-.068c.036,0,.069-.034.105-.034a12.566,12.566,0,0,0,5.473-2.363l-1.225,2.123h3.6l5.412-9.405c5.483-6.874,7.915-5.985,6.372-3.352l-4.625,8.037c-1.508,2.634-.445,5.062,2.434,5.062,2.069,0,4.359-1.556,6.56-3.666-.007,4.536,6.3,5.42,10.161.553h.789A9.832,9.832,0,0,0,242,22.7l-6.49,11.238h3.6l10.657-18.5c3.973-5.4,6.475-3.42,5.55-1.812l-5.378,9.3a1.376,1.376,0,0,1-2.571,0l-2.022.958a3.883,3.883,0,0,0,3.906,2.873h.206c5.174-.1,8.566-3.181,11.478-6.567A2.249,2.249,0,0,0,259.59,18.948Zm-81.135-4.993c2.056-3.523,5.686-2.941,3.563.752l-.514.89c-1.714,2.907-4.01,2.839-5.345,2.36Zm-45.672,5.609c-2.158,3.385-4.283,4.993-5.757,4.993-.788,0-1.233-.547-.411-1.949l4.97-8.652c1.918-3.318,5.72-2.462,3.973.752ZM159.61,24.42a1.329,1.329,0,0,1-1.439-1.369,4.007,4.007,0,0,1,.618-1.846l1.267-2.188a5.231,5.231,0,0,0,2.261,3.693A3.347,3.347,0,0,1,159.61,24.42Zm3.734-3.455a3.838,3.838,0,0,1-1.508-3.215c0-2.531,2.469-6.669,4.488-6.669a1.358,1.358,0,0,1,1.337,1.54,4.322,4.322,0,0,1-.686,2.12Zm73.187-1.777h-.17a2.106,2.106,0,0,0-2.092,2.12,2.326,2.326,0,0,0,.344,1.2l-.035.068c-1.677,2.872-5.755,2.325-3.631-1.369l2.707-4.687,1.713-2.907c2.5-4.241,5.928-2.565,3.77,1.129Z" fill="#fff"/>
    </g>
    <rect id="Rectangle_1" data-name="Rectangle 1" width="8.096" height="8.081" transform="matrix(0.707, -0.707, 0.707, 0.707, 0.004, 73.251)" fill="#fff"/>
    <rect id="Rectangle_2" data-name="Rectangle 2" width="8.096" height="8.082" transform="translate(352.509 73.235) rotate(-44.995)" fill="#fff"/>
    <g id="Group_20" data-name="Group 20">
      <path id="Path_41" data-name="Path 41" d="M46.868,73.457h2.086V65.136h3.28V63.052H46.868Z" fill="#636466"/>
      <path id="Path_42" data-name="Path 42" d="M61.782,74.986V62.3a4.561,4.561,0,0,0-2.567-4.068,4.448,4.448,0,0,1,.481,1.985V72.9a4.469,4.469,0,0,1-1.664,3.51A5.189,5.189,0,0,1,59.7,80.107v14.1a4.63,4.63,0,0,1-4.564,4.557H41.552v2.083H57.218a4.63,4.63,0,0,0,4.564-4.557v-14.1A5.188,5.188,0,0,0,60.117,78.5,4.467,4.467,0,0,0,61.782,74.986Z" fill="#636466"/>
      <path id="Path_43" data-name="Path 43" d="M46.868,91.311h2.086V82.929h3.28V80.846H46.868Z" fill="#636466"/>
    </g>
    <g id="Group_21" data-name="Group 21">
      <path id="Path_44" data-name="Path 44" d="M79.928,91.311h2.086V65.136h3.279V63.052H79.928Z" fill="#636466"/>
      <path id="Path_45" data-name="Path 45" d="M92.275,58.236a4.447,4.447,0,0,1,.48,1.985V94.2a4.631,4.631,0,0,1-4.563,4.557h-11.1a4.511,4.511,0,0,1-1.991-.48,4.572,4.572,0,0,0,4.077,2.563h11.1a4.631,4.631,0,0,0,4.564-4.557V62.3A4.567,4.567,0,0,0,92.275,58.236Z" fill="#636466"/>
    </g>
    <g id="Group_22" data-name="Group 22">
      <path id="Path_46" data-name="Path 46" d="M112.986,73.457h2.086V65.136h3.281V63.052h-5.367Z" fill="#636466"/>
      <path id="Path_47" data-name="Path 47" d="M125.249,82.5a4.464,4.464,0,0,0,2.59-4.062V62.3a4.554,4.554,0,0,0-2.57-4.1,4.54,4.54,0,0,1,.484,2.013v16.13a4.461,4.461,0,0,1-2.59,4.062l3.084,18.347H120.58l.352,2.083h7.4Z" fill="#636466"/>
      <path id="Path_48" data-name="Path 48" d="M115.823,80.846h-2.837V98.76h-5.313v2.083h7.4V82.929h1.1Z" fill="#636466"/>
    </g>
    <g id="Group_23" data-name="Group 23">
      <path id="Path_49" data-name="Path 49" d="M145.062,91.311h2.086V65.136h3.279V63.052h-5.365Z" fill="#636466"/>
      <path id="Path_50" data-name="Path 50" d="M157.408,58.236a4.435,4.435,0,0,1,.481,1.985V94.2a4.63,4.63,0,0,1-4.563,4.557h-11.1a4.5,4.5,0,0,1-1.989-.48,4.569,4.569,0,0,0,4.075,2.563h11.1a4.63,4.63,0,0,0,4.563-4.557V62.3A4.564,4.564,0,0,0,157.408,58.236Z" fill="#636466"/>
    </g>
    <g id="Group_24" data-name="Group 24">
      <path id="Path_51" data-name="Path 51" d="M178.12,91.311h2.086V65.136h3.28V63.052H178.12Z" fill="#636466"/>
      <path id="Path_52" data-name="Path 52" d="M190.467,58.236a4.448,4.448,0,0,1,.481,1.985V94.2a4.631,4.631,0,0,1-4.564,4.557H172.8v2.083h15.666a4.631,4.631,0,0,0,4.564-4.557V62.3A4.562,4.562,0,0,0,190.467,58.236Z" fill="#636466"/>
    </g>
    <path id="Path_53" data-name="Path 53" d="M211.55,57.748V98.76h-5.314v2.083h7.4v-43.1Z" fill="#636466"/>
    <g id="Group_25" data-name="Group 25">
      <path id="Path_54" data-name="Path 54" d="M244.485,57.748V98.76h-5.914l.6,2.083h7.4v-43.1Z" fill="#636466"/>
      <path id="Path_55" data-name="Path 55" d="M231.656,79.921V98.76h-5.314v2.083h7.4V87.161Z" fill="#636466"/>
    </g>
    <g id="Group_26" data-name="Group 26">
      <path id="Path_56" data-name="Path 56" d="M263.965,82.929h6.117V80.846h-8.2a4.522,4.522,0,0,1-2-.478A4.538,4.538,0,0,0,263.965,82.929Z" fill="#636466"/>
      <path id="Path_57" data-name="Path 57" d="M266.8,85.7l-2.086.485v5.127H266.8Z" fill="#636466"/>
      <path id="Path_58" data-name="Path 58" d="M277.063,58.236a4.449,4.449,0,0,1,.482,1.985v8.741l-5.376,1.243v2.564l7.461-1.724V62.3A4.56,4.56,0,0,0,277.063,58.236Z" fill="#636466"/>
      <path id="Path_59" data-name="Path 59" d="M277.063,76.028a4.445,4.445,0,0,1,.482,1.984V94.2a4.632,4.632,0,0,1-4.565,4.557h-11.1a4.51,4.51,0,0,1-1.99-.48,4.57,4.57,0,0,0,4.076,2.563h11.1a4.631,4.631,0,0,0,4.565-4.557V80.1A4.559,4.559,0,0,0,277.063,76.028Z" fill="#636466"/>
      <path id="Path_60" data-name="Path 60" d="M264.716,63.052v10.4H266.8V65.136h3.281V63.052Z" fill="#636466"/>
    </g>
    <g id="Group_27" data-name="Group 27">
      <path id="Path_61" data-name="Path 61" d="M298.456,80.846h-.68V98.76h-5.315v2.083h7.4V85.326Z" fill="#636466"/>
      <path id="Path_62" data-name="Path 62" d="M313.615,57.748h-2.756l-6.238,19.4,6.908,21.608h-6.015l.578,1.837.061.246h7.462l-6.908-21.608Z" fill="#636466"/>
    </g>
    <path id="Path_63" data-name="Path 63" d="M331.021,57.748V98.76h-5.313v2.083h7.4v-43.1Z" fill="#636466"/>
    <g id="UUIVGv.tif">
      <g id="Group_28" data-name="Group 28">
        <path id="Path_64" data-name="Path 64" d="M168.146,123.808h1.411c5.436.277,9.7,1.726,12.41,4.721,2.742-2.985,7-4.456,12.473-4.721h1.352c12.124.822,17.655,9.492,27.342,13.185a11.147,11.147,0,0,0,4.792.982c2.479-.27,4.065-2.78,3.746-5.581-.342-3.015-3.28-5.607-6.573-4.171a4.318,4.318,0,0,0-1.168.8c-.253.226-.535.826-1.168.613-.6-.5.044-1.227.307-1.654a6.021,6.021,0,0,1,6.083-3.006c5.639.4,10.691,5.336,9.829,12.818C237.063,149,226.858,151.934,214.777,153h-3.933a48.393,48.393,0,0,1-28.814-11.04A49.2,49.2,0,0,1,153.091,153H149.22c-12.177-1.072-22.477-4.016-24.268-15.456-.677-8.155,4.19-12.168,9.829-12.572a6.125,6.125,0,0,1,6.145,3.006c.277.463.8,1.167.306,1.716-.61.109-.909-.369-1.167-.613a4.013,4.013,0,0,0-2.826-1.229c-3.867-.138-6.085,4.154-4.547,7.607a4.337,4.337,0,0,0,3.379,2.515,11.713,11.713,0,0,0,4.793-.982,23.887,23.887,0,0,0,3.871-1.9C152.116,130.772,157.869,124.724,168.146,123.808Z" fill="#fff"/>
      </g>
    </g>
    <rect id="Rectangle_3" data-name="Rectangle 3" width="8.096" height="2.946" transform="translate(362.193 82.912) rotate(-45.005)" fill="#636466"/>
    <rect id="Rectangle_4" data-name="Rectangle 4" width="8.097" height="2.946" transform="translate(9.689 82.926) rotate(-45)" fill="#636466"/>
    <g id="Group_29" data-name="Group 29">
      <path id="Path_65" data-name="Path 65" d="M55.731,68.945a4.469,4.469,0,0,1-1.664,3.51,5.189,5.189,0,0,1,1.664,3.693v14.1A4.631,4.631,0,0,1,51.167,94.8H35.5V51.708H51.168a4.589,4.589,0,0,1,4.564,4.557V68.945ZM48.269,59.1H42.9V69.5h5.366Zm0,17.792H42.9V87.354h5.366Z" fill="#fff"/>
      <path id="Path_66" data-name="Path 66" d="M84.229,51.708a4.589,4.589,0,0,1,4.563,4.557V90.248A4.63,4.63,0,0,1,84.229,94.8h-11.1a4.59,4.59,0,0,1-4.566-4.556V56.264a4.55,4.55,0,0,1,4.566-4.557Zm-2.9,7.388H75.963V87.354h5.365Z" fill="#fff"/>
      <path id="Path_67" data-name="Path 67" d="M114.881,94.8l-3.022-17.914h-2.837V94.8h-7.4V51.708h15.665a4.536,4.536,0,0,1,4.5,4.557v16.13a4.465,4.465,0,0,1-2.589,4.063L122.282,94.8ZM114.389,59.1h-5.367V69.5h5.367Z" fill="#fff"/>
      <path id="Path_68" data-name="Path 68" d="M149.362,51.708a4.589,4.589,0,0,1,4.563,4.557V90.248a4.63,4.63,0,0,1-4.563,4.556h-11.1a4.59,4.59,0,0,1-4.565-4.556V56.264a4.55,4.55,0,0,1,4.565-4.557Zm-2.9,7.388H141.1V87.354h5.365Z" fill="#fff"/>
      <path id="Path_69" data-name="Path 69" d="M182.42,51.708a4.589,4.589,0,0,1,4.564,4.557V90.248A4.63,4.63,0,0,1,182.42,94.8H166.755v-43.1Zm-2.9,7.388h-5.366V87.354h5.366Z" fill="#fff"/>
      <path id="Path_70" data-name="Path 70" d="M200.186,51.708h7.4V94.8h-7.4Z" fill="#fff"/>
      <path id="Path_71" data-name="Path 71" d="M240.52,51.708V94.8h-7.4l-5.428-18.837V94.8h-7.4V51.708h7.339l5.428,17.669V51.708Z" fill="#fff"/>
      <path id="Path_72" data-name="Path 72" d="M269.016,69.5a4.59,4.59,0,0,1,4.565,4.556V90.248a4.631,4.631,0,0,1-4.565,4.556h-11.1a4.591,4.591,0,0,1-4.565-4.556V81.384l7.4-1.723v7.694h5.367V76.888h-8.2a4.551,4.551,0,0,1-4.565-4.557V56.264a4.55,4.55,0,0,1,4.565-4.557h11.1a4.59,4.59,0,0,1,4.565,4.557v8.741l-7.462,1.724V59.1h-5.367V69.5Z" fill="#fff"/>
      <path id="Path_73" data-name="Path 73" d="M300.657,73.194,307.564,94.8H300.1l-.061-.246L294.49,76.888h-.68V94.8h-7.4V51.708h7.4V69.5h.557l5.674-17.792h7.523Z" fill="#fff"/>
      <path id="Path_74" data-name="Path 74" d="M319.656,51.708h7.4V94.8h-7.4Z" fill="#fff"/>
    </g>
  </g>
</svg>
